<svg width="2739" height="589" viewBox="0 0 2739 589" fill="none" xmlns="http://www.w3.org/2000/svg">
<g clip-path="url(#clip0_5799_3372)">
<path d="M125 171.86H145.167C159.839 171.86 171.826 183.578 172.16 198.247L173 235.22L167.24 233.3C170.12 219.54 175.08 207.7 182.12 197.78C189.48 187.54 198.44 179.7 209 174.26C219.56 168.82 231.08 166.1 243.56 166.1C265.32 166.1 283.08 172.18 296.84 184.34C310.6 196.5 319.24 213.46 322.76 235.22H314.6C318.76 213.14 327.56 196.18 341 184.34C354.44 172.18 371.72 166.1 392.84 166.1C410.44 166.1 425.64 169.94 438.44 177.62C451.24 184.98 460.84 195.86 467.24 210.26C473.96 224.66 477.32 242.26 477.32 263.06V427.22H453.44C438.528 427.22 426.44 415.132 426.44 400.22V275.54C426.44 253.14 422.44 236.5 414.44 225.62C406.44 214.42 394.28 208.82 377.96 208.82C367.4 208.82 358.12 211.54 350.12 216.98C342.12 222.42 335.88 230.42 331.4 240.98C327.24 251.22 325.16 263.38 325.16 277.46V427.22H303.68C288.768 427.22 276.68 415.132 276.68 400.22V277.46C276.68 255.06 272.84 238.1 265.16 226.58C257.8 214.74 245.8 208.82 229.16 208.82C218.28 208.82 208.84 211.54 200.84 216.98C192.84 222.42 186.6 230.42 182.12 240.98C177.96 251.22 175.88 263.38 175.88 277.46V427.22H125V171.86Z" fill="white"/>
<path d="M607.411 432.98C580.851 432.98 559.571 426.9 543.571 414.74C527.891 402.26 520.051 385.14 520.051 363.38C520.051 341.62 526.611 324.5 539.731 312.02C552.851 299.54 573.491 290.58 601.651 285.14L689.491 268.34C689.491 248.5 684.851 233.78 675.571 224.18C666.611 214.26 653.011 209.3 634.771 209.3C618.771 209.3 605.971 212.98 596.371 220.34C592.375 223.27 588.934 226.811 586.047 230.961C578.479 241.839 567.449 251.401 554.224 250.56L524.371 248.66C529.171 222.74 541.171 202.58 560.371 188.18C579.891 173.46 604.691 166.1 634.771 166.1C669.011 166.1 695.091 175.22 713.011 193.46C731.251 211.7 740.371 237.62 740.371 271.22V370.58C740.371 376.66 741.491 380.98 743.731 383.54C745.971 385.78 749.491 386.9 754.291 386.9V386.9C759.328 386.9 763.411 390.983 763.411 396.02V427.22C761.171 427.54 758.291 427.86 754.771 428.18C751.571 428.5 748.211 428.66 744.691 428.66C727.091 428.66 713.971 424.5 705.331 416.18C697.011 407.54 692.851 393.14 692.851 372.98L698.131 375.38C694.611 392.02 684.371 405.78 667.411 416.66C650.451 427.54 630.451 432.98 607.411 432.98ZM616.051 392.66C631.091 392.66 644.051 389.78 654.931 384.02C666.131 377.94 674.611 369.62 680.371 359.06C686.451 348.5 689.491 336.5 689.491 323.06V306.74L615.091 321.14C600.051 324.02 589.171 328.5 582.451 334.58C576.051 340.66 572.851 348.66 572.851 358.58C572.851 369.46 576.531 377.94 583.891 384.02C591.571 389.78 602.291 392.66 616.051 392.66Z" fill="white"/>
<path d="M905.585 504.98C885.745 504.98 867.985 501.94 852.305 495.86C836.945 489.78 824.305 481.14 814.385 469.94C804.465 459.06 797.745 446.26 794.225 431.54L847.025 428.18C850.545 439.7 856.785 448.34 865.745 454.1C875.025 459.86 888.305 462.74 905.585 462.74C927.025 462.74 943.185 458.26 954.065 449.3C965.265 440.34 970.865 426.74 970.865 408.5V371.54C964.465 384.66 954.545 395.06 941.105 402.74C927.985 410.42 913.105 414.26 896.465 414.26C875.345 414.26 856.465 409.14 839.825 398.9C823.185 388.34 810.065 373.78 800.465 355.22C791.185 336.34 786.545 314.74 786.545 290.42C786.545 266.1 791.185 244.66 800.465 226.1C809.745 207.22 822.545 192.5 838.865 181.94C855.185 171.38 873.905 166.1 895.025 166.1C912.945 166.1 928.785 170.26 942.545 178.58C956.625 186.58 966.705 197.78 972.785 212.18V198.86C972.785 183.948 984.873 171.86 999.785 171.86H1022.22V407.06C1022.22 438.1 1011.83 462.1 991.025 479.06C970.225 496.34 941.745 504.98 905.585 504.98ZM904.625 371.06C918.065 371.06 929.745 367.86 939.665 361.46C949.585 354.74 957.265 345.3 962.705 333.14C968.465 320.98 971.345 306.58 971.345 289.94C971.345 273.62 968.625 259.38 963.185 247.22C958.065 235.06 950.385 225.78 940.145 219.38C929.905 212.66 918.065 209.3 904.625 209.3C884.465 209.3 868.465 216.66 856.625 231.38C845.105 245.78 839.345 265.3 839.345 289.94C839.345 314.9 845.265 334.74 857.105 349.46C868.945 363.86 884.785 371.06 904.625 371.06Z" fill="white"/>
<path d="M1078.23 198.86C1078.23 183.948 1090.32 171.86 1105.23 171.86H1129.11V400.22C1129.11 415.132 1117.02 427.22 1102.11 427.22H1078.23V198.86ZM1077.27 111.02C1077.27 96.1083 1089.36 84.02 1104.27 84.02H1130.55V107.9C1130.55 122.812 1118.46 134.9 1103.55 134.9H1077.27V111.02Z" fill="white"/>
<path d="M1297.54 432.98C1273.22 432.98 1251.93 427.54 1233.69 416.66C1215.45 405.78 1201.21 390.26 1190.97 370.1C1181.05 349.62 1176.09 326.1 1176.09 299.54C1176.09 272.98 1181.05 249.62 1190.97 229.46C1201.21 208.98 1215.45 193.3 1233.69 182.42C1251.93 171.54 1273.22 166.1 1297.54 166.1C1318.02 166.1 1336.26 169.78 1352.26 177.14C1368.58 184.18 1381.85 194.74 1392.09 208.82C1402.33 222.58 1408.74 239.22 1411.3 258.74L1382.86 260.291C1369.02 261.046 1357.64 250.656 1350.82 238.597C1347.56 232.835 1343.4 227.869 1338.33 223.7C1327.45 214.74 1313.86 210.26 1297.54 210.26C1276.1 210.26 1259.3 218.1 1247.14 233.78C1234.98 249.46 1228.9 271.38 1228.9 299.54C1228.9 327.7 1234.98 349.62 1247.14 365.3C1259.3 380.98 1276.1 388.82 1297.54 388.82C1313.86 388.82 1327.45 384.18 1338.33 374.9C1343.84 370.201 1348.29 364.353 1351.66 357.357C1357.76 344.727 1369.25 334.207 1383.26 334.971L1411.3 336.5C1408.74 356.02 1402.33 372.98 1392.09 387.38C1382.17 401.78 1369.05 412.98 1352.73 420.98C1336.41 428.98 1318.02 432.98 1297.54 432.98Z" fill="white"/>
<path d="M1965.34 430.661C1941.02 430.661 1919.74 425.221 1901.5 414.341C1883.26 403.461 1869.02 387.941 1858.78 367.781C1848.86 347.621 1843.9 324.101 1843.9 297.221C1843.9 270.341 1848.86 246.821 1858.78 226.661C1869.02 206.501 1883.26 190.981 1901.5 180.101C1919.74 169.221 1941.02 163.781 1965.34 163.781C1989.34 163.781 2010.46 169.221 2028.7 180.101C2046.94 190.981 2061.02 206.501 2070.94 226.661C2081.18 246.821 2086.3 270.341 2086.3 297.221C2086.3 324.101 2081.18 347.621 2070.94 367.781C2061.02 387.941 2046.94 403.461 2028.7 414.341C2010.46 425.221 1989.34 430.661 1965.34 430.661ZM1965.34 386.501C1986.78 386.501 2003.42 378.661 2015.26 362.981C2027.42 346.981 2033.5 325.061 2033.5 297.221C2033.5 269.381 2027.42 247.621 2015.26 231.941C2003.42 215.941 1986.78 207.941 1965.34 207.941C1943.9 207.941 1927.1 215.781 1914.94 231.461C1902.78 247.141 1896.7 269.061 1896.7 297.221C1896.7 325.381 1902.78 347.301 1914.94 362.981C1927.1 378.661 1943.9 386.501 1965.34 386.501Z" fill="white"/>
<path d="M1668.04 430.662C1646.28 430.662 1627.24 425.222 1610.92 414.342C1594.92 403.462 1582.6 387.942 1573.96 367.782C1565.32 347.622 1561 324.102 1561 297.222C1561 270.342 1565.32 246.822 1573.96 226.662C1582.6 206.502 1594.92 190.982 1610.92 180.102C1627.24 169.222 1646.28 163.782 1668.04 163.782C1685.64 163.782 1701.16 167.462 1714.6 174.822C1728.36 182.182 1738.76 192.422 1745.8 205.542V111.102C1745.8 96.1899 1757.89 84.1016 1772.8 84.1016H1796.68V424.902H1775.65C1761.13 424.902 1749.21 413.421 1748.67 398.913L1748.2 386.502C1741.16 400.262 1730.44 411.142 1716.04 419.142C1701.96 426.822 1685.96 430.662 1668.04 430.662ZM1681.48 386.502C1694.92 386.502 1706.44 382.982 1716.04 375.942C1725.96 368.902 1733.32 358.822 1738.12 345.702C1743.24 332.262 1745.8 316.102 1745.8 297.222C1745.8 278.342 1743.24 262.182 1738.12 248.742C1733.32 235.302 1726.12 225.222 1716.52 218.502C1706.92 211.462 1695.24 207.942 1681.48 207.942C1660.68 207.942 1644.2 215.942 1632.04 231.942C1619.88 247.622 1613.8 269.382 1613.8 297.222C1613.8 324.742 1619.88 346.502 1632.04 362.502C1644.52 378.502 1661 386.502 1681.48 386.502Z" fill="white"/>
<path d="M2255.44 430.88C2231.12 430.88 2209.84 425.44 2191.6 414.56C2173.36 403.68 2159.12 388.16 2148.88 368C2138.96 347.52 2134 324 2134 297.44C2134 270.88 2138.96 247.52 2148.88 227.36C2159.12 206.88 2173.36 191.2 2191.6 180.32C2209.84 169.44 2231.12 164 2255.44 164C2275.92 164 2294.16 167.68 2310.16 175.04C2326.48 182.08 2339.76 192.64 2350 206.72C2360.24 220.48 2366.64 237.12 2369.2 256.64L2340.76 258.191C2326.93 258.946 2315.55 248.556 2308.73 236.497C2305.46 230.735 2301.3 225.769 2296.24 221.6C2285.36 212.64 2271.76 208.16 2255.44 208.16C2234 208.16 2217.2 216 2205.04 231.68C2192.88 247.36 2186.8 269.28 2186.8 297.44C2186.8 325.6 2192.88 347.52 2205.04 363.2C2217.2 378.88 2234 386.72 2255.44 386.72C2271.76 386.72 2285.36 382.08 2296.24 372.8C2301.75 368.101 2306.19 362.253 2309.57 355.257C2315.66 342.627 2327.16 332.107 2341.16 332.871L2369.2 334.4C2366.64 353.92 2360.24 370.88 2350 385.28C2340.08 399.68 2326.96 410.88 2310.64 418.88C2294.32 426.88 2275.92 430.88 2255.44 430.88Z" fill="white"/>
<path d="M2509.12 430.88C2485.76 430.88 2465.6 427.36 2448.64 420.32C2432 412.96 2419.04 402.88 2409.76 390.08C2400.8 376.96 2395.68 361.76 2394.4 344.48L2422.94 343.183C2436.73 342.556 2447.88 353.144 2455.28 364.799C2458.04 369.136 2461.43 372.923 2465.44 376.16C2475.68 384.16 2490.24 388.16 2509.12 388.16C2525.44 388.16 2538.08 385.6 2547.04 380.48C2556.32 375.04 2560.96 366.88 2560.96 356C2560.96 349.6 2559.36 344.32 2556.16 340.16C2552.96 336 2547.04 332.48 2538.4 329.6C2529.76 326.4 2516.96 323.36 2500 320.48C2475.04 316 2455.2 310.56 2440.48 304.16C2426.08 297.44 2415.84 289.28 2409.76 279.68C2403.68 269.76 2400.64 257.6 2400.64 243.2C2400.64 219.52 2409.6 200.48 2427.52 186.08C2445.44 171.36 2470.56 164 2502.88 164C2534.24 164 2558.88 171.84 2576.8 187.52C2595.04 202.88 2606.08 223.04 2609.92 248L2581.29 249.576C2567.74 250.322 2556.59 240.178 2548.91 228.988C2546.26 225.111 2543.07 221.688 2539.36 218.72C2530.08 210.72 2517.76 206.72 2502.4 206.72C2486.4 206.72 2474.24 209.92 2465.92 216.32C2457.6 222.4 2453.44 230.72 2453.44 241.28C2453.44 248.96 2455.2 255.2 2458.72 260C2462.56 264.8 2468.48 268.8 2476.48 272C2484.8 274.88 2496.16 277.44 2510.56 279.68C2537.12 284.16 2557.76 289.6 2572.48 296C2587.2 302.4 2597.76 310.4 2604.16 320C2610.56 329.28 2613.76 341.12 2613.76 355.52C2613.76 379.2 2604 397.76 2584.48 411.2C2565.28 424.32 2540.16 430.88 2509.12 430.88Z" fill="white"/>
</g>
<defs>
<clipPath id="clip0_5799_3372">
<rect width="2489" height="421" fill="white" transform="translate(125 84)"/>
</clipPath>
</defs>
</svg>
